<svg xmlns="http://www.w3.org/2000/svg" width="1200" height="630" viewBox="0 0 1200 630" role="img" aria-labelledby="title desc">
  <title id="title">MAPS - Multi-Agent Pipeline Skills</title>
  <desc id="desc">A Mojo AI Studio social preview image showing a folded map and the MAPS title.</desc>
  <defs>
    <linearGradient id="background" x1="0" y1="0" x2="1" y2="1">
      <stop offset="0" stop-color="#f7fbf8"/>
      <stop offset="0.56" stop-color="#e7f0f3"/>
      <stop offset="1" stop-color="#f6ead7"/>
    </linearGradient>
    <linearGradient id="brand" x1="0" y1="0" x2="1" y2="1">
      <stop offset="0" stop-color="#174f7a"/>
      <stop offset="1" stop-color="#2f8f6f"/>
    </linearGradient>
    <filter id="shadow" x="-20%" y="-20%" width="140%" height="150%">
      <feDropShadow dx="0" dy="22" stdDeviation="18" flood-color="#132235" flood-opacity="0.22"/>
    </filter>
  </defs>

  <rect width="1200" height="630" fill="url(#background)"/>

  <g transform="translate(76 74)">
    <rect width="1048" height="482" rx="36" fill="#ffffff" filter="url(#shadow)"/>
    <rect width="1048" height="482" rx="36" fill="none" stroke="#cfded8" stroke-width="2"/>
  </g>

  <g transform="translate(120 112)" font-family="Inter, Arial, sans-serif">
    <rect x="0" y="0" width="84" height="84" rx="22" fill="url(#brand)"/>
    <text x="42" y="59" text-anchor="middle" font-size="50" font-weight="900" fill="#ffffff">M</text>
    <text x="108" y="34" font-size="26" font-weight="850" fill="#24313a">Mojo AI Studio</text>
    <text x="108" y="68" font-size="22" font-weight="650" fill="#53616b">Agent systems builder framework</text>

    <text x="0" y="208" font-size="116" font-weight="950" fill="#14212b">MAPS</text>
    <text x="3" y="274" font-size="39" font-weight="850" fill="#174f7a">Multi-Agent Pipeline Skills</text>
    <text x="4" y="326" font-size="30" font-weight="650" fill="#43525d">Build agents with clear phases,</text>
    <text x="4" y="365" font-size="30" font-weight="650" fill="#43525d">skills, tools, and proof.</text>
  </g>

  <g transform="translate(692 116)">
    <path d="M55 30 185 0l128 30 126-30c24-6 46 12 46 37v332c0 18-13 34-31 38l-139 31-130-31-130 31c-24 6-46-12-46-37V68c0-18 13-34 31-38z" fill="#f7f1df" stroke="#c2b58d" stroke-width="5" filter="url(#shadow)"/>
    <path d="M185 0v407M313 30v408" stroke="#c2b58d" stroke-width="5"/>
    <path d="M56 72c46 12 82 8 129-14 35 25 82 28 128 4 36 24 78 30 126 12" fill="none" stroke="#7ebaa8" stroke-width="16" stroke-linecap="round"/>
    <path d="M50 168c50 18 91 16 137-6 38 24 80 20 125-4 40 22 80 24 128 4" fill="none" stroke="#6fa2c6" stroke-width="15" stroke-linecap="round"/>
    <path d="M64 274c40-16 80-14 120 6 43-27 83-31 128-10 40-22 83-22 127-2" fill="none" stroke="#9bc779" stroke-width="15" stroke-linecap="round"/>
    <path d="M116 340 236 216l74 46 74-112" fill="none" stroke="#d9922f" stroke-width="13" stroke-linecap="round" stroke-linejoin="round"/>
    <circle cx="116" cy="340" r="19" fill="#174f7a"/>
    <circle cx="236" cy="216" r="19" fill="#2f8f6f"/>
    <circle cx="310" cy="262" r="19" fill="#d9922f"/>
    <circle cx="384" cy="150" r="19" fill="#d94f45"/>
    <path d="M86 104h46M348 88h58M82 226h70M354 326h56" stroke="#d7cda9" stroke-width="9" stroke-linecap="round"/>
  </g>

  <g transform="translate(120 500)" font-family="Inter, Arial, sans-serif">
    <rect x="0" y="0" width="226" height="50" rx="15" fill="#e7f3ef" stroke="#abd3c6"/>
    <text x="24" y="33" font-size="21" font-weight="850" fill="#2f715e">APS this week</text>
    <rect x="248" y="0" width="246" height="50" rx="15" fill="#edf4fb" stroke="#b8d1e7"/>
    <text x="272" y="33" font-size="21" font-weight="850" fill="#174f7a">M scaffold next</text>
  </g>
</svg>
